Simulation
nRows=36
nColumns=15
endheader
time  TH_x TH_y TH_z SC_y  SC_z  SC_x  AC_y  AC_z  AC_x  GH_y  GH_z  GH_yy  EL_x  PS_y
2.8725  0.000000  0.000000  0.000000  -39.14866421595081  -5.1425154285204595  -36.389888608597154  36.15510413347009  31.19697735596117  23.04817954611548  16.652693648799893  10.44386584720398  -8.390111675664903  14.021344348647444  120.000000
2.92995  0.000000  0.000000  0.000000  -39.15762834900356  -5.290669112191617  -36.80630987173002  36.06764240363428  32.05994695483968  23.581440383497327  21.45815766683514  8.980145327783465  -10.416608133552902  14.38767283273286  120.000000
2.9874  0.000000  0.000000  0.000000  -39.211200689923494  -5.384589634237328  -37.045230594024325  36.04663904983506  32.774869283325636  23.973272868610493  27.695057277552817  7.8601524010443  -14.358481524056877  14.841367283223576  120.000000
3.0448500000000003  0.000000  0.000000  0.000000  -39.296940187470575  -5.417474550642665  -37.15321930580671  36.050042460937455  33.32828180385217  24.24977763106619  35.05599617667013  7.07899353168989  -19.926003075784227  15.335601770846322  120.000000
3.1023  0.000000  0.000000  0.000000  -39.39751079638313  -5.383358772566457  -37.17835871031957  36.04889122852588  33.723716449866515  24.444343817445073  42.70494833162331  6.612400137200416  -26.247581469520988  15.826567934072088  120.000000
3.15975  0.000000  0.000000  0.000000  -39.49778788825634  -5.282344896919957  -37.15743660150266  36.0316619277444  33.97817056869587  24.586870582262033  49.57166836976096  6.401637957902763  -32.18415676754965  16.283762094369706  120.000000
3.2172  0.000000  0.000000  0.000000  -39.589818366866886  -5.128811159498099  -37.09842578260344  36.00755088739185  34.11243040863842  24.689742611277023  54.869011020981404  6.360371093359637  -36.86284607444217  16.695335573378916  120.000000
3.2746500000000003  0.000000  0.000000  0.000000  -39.665174356103975  -4.9433087195632455  -36.993795593003306  36.001519171453644  34.1475303788329  24.747480718518254  58.36788041895946  6.404915334004001  -39.96503417209803  17.067722153399988  120.000000
3.3321  0.000000  0.000000  0.000000  -39.70979113137107  -4.745059580849051  -36.83772241094356  36.04418480790078  34.102722622708676  24.749061459435012  60.276869322852576  6.4792072919911226  -41.617523518257926  17.417177963081947  120.000000
3.38955  0.000000  0.000000  0.000000  -39.71004639408177  -4.552318089188433  -36.62545794368346  36.16301579604991  33.98923826526914  24.68773174384336  61.014686970208615  6.556149366633208  -42.17267507871818  17.761656327033435  120.000000
3.447  0.000000  0.000000  0.000000  -39.66113786207656  -4.380679260276579  -36.35260618859736  36.37462401359715  33.809280662944026  24.563598582756264  61.009107682538755  6.626581064985156  -42.014384454331946  18.112960161120764  120.000000
3.5044500000000003  0.000000  0.000000  0.000000  -39.57029297999848  -4.234453314162362  -36.016682174892615  36.68326082261049  33.56227180360368  24.379343797948486  60.57738534983569  6.690476370803663  -41.43891160676552  18.47484040214204  120.000000
3.5619  0.000000  0.000000  0.000000  -39.45318625028218  -4.104855623345643  -35.61777776973113  37.081705718365725  33.249166965387055  24.1380253927571  59.891769524192505  6.751357536480977  -40.61420952190032  18.845393583038497  120.000000
3.61935  0.000000  0.000000  0.000000  -39.32668060859367  -3.976838960434494  -35.15848829904248  37.55498028129487  32.871202382204046  23.844381991649932  59.01057560022932  6.812648497608554  -39.602360935124786  19.22013484804313  120.000000
3.6768  0.000000  0.000000  0.000000  -39.20209212862873  -3.836127413018262  -34.64383742590134  38.08640749679028  32.42777374032818  23.505604600988576  57.93525786694033  6.877061466123616  -38.41017394766552  19.595592368866004  120.000000
3.7342500000000003  0.000000  0.000000  0.000000  -39.08247723973677  -3.673718427996452  -34.08073815056051  38.660611193516026  31.915411039948093  23.132184511043956  56.64302427063537  6.946994110597736  -37.0185864506069  19.970589175070977  120.000000
3.7917  0.000000  0.000000  0.000000  -38.96324061820141  -3.4860181930253846  -33.47754931504367  39.26482880602692  31.328593453827303  22.737747396854395  55.09352678517185  7.025905761337338  -35.38871157092773  20.345990926597235  120.000000
3.84915  0.000000  0.000000  0.000000  -38.83468672443845  -3.273016688910041  -32.84370413375055  39.889046955847455  30.661788969712653  22.337897755909474  53.213940882279466  7.119835911657582  -33.4466367704968  20.723059959013845  120.000000
3.9066  0.000000  0.000000  0.000000  -38.68496761243235  -3.0353985955292377  -32.1896781341237  40.52565418629504  29.911844406745164  21.94838768344541  50.882103485836325  7.2392378247761195  -31.066707555421043  21.10171020980526  120.000000
3.9640500000000003  0.000000  0.000000  0.000000  -38.5023195574592  -2.7728190648667157  -31.52750849566318  41.17030269934835  29.079767529634804  21.58287252201384  47.937051724008526  7.402417303641088  -28.082833487138284  21.479598247318393  120.000000
4.0215  0.000000  0.000000  0.000000  -38.276033164813825  -2.4839927911504773  -30.871429580642296  41.823462342473405  28.17117322444387  21.251699364747164  44.240227198349  7.64076930387222  -24.35320520649852  21.852290910392217  120.000000
4.07895  0.000000  0.000000  0.000000  -37.99902291268946  -2.1696138105468186  -30.237490853787516  42.48997468977024  27.19546597347802  20.962913226383865  39.774418563317525  8.00349228382379  -19.865059353874567  22.212765298423555  120.000000
4.1364  0.000000  0.000000  0.000000  -37.67197539618163  -1.8361647871774103  -29.642575078502322  43.1770994006572  26.163375563259113  20.72504200023907  34.744658897042505  8.556745492088552  -14.841876693013957  22.549671306259242  120.000000
4.19385  0.000000  0.000000  0.000000  -37.307316015159195  -1.4988559569337605  -29.102384010166578  43.89149006724944  25.084566967289014  20.54968757624955  29.585467355553  9.3735722582397  -9.753721647881072  22.845780569925353  120.000000
4.2513000000000005  0.000000  0.000000  0.000000  -36.92898419893518  -1.1796014164531927  -28.626554118196136  44.63629301995426  23.969181146910834  20.45292171405625  24.819925090467667  10.52043498195843  -5.174208535037512  23.080299733203685  120.000000
4.30875  0.000000  0.000000  0.000000  -36.56758189510839  -0.9023543010639838  -28.212611735384822  45.410181062579255  22.832065282392843  20.453364140979346  20.856447303325524  12.049006070439829  -1.570127975625577  23.23661192460312  120.000000
4.3662  0.000000  0.000000  0.000000  -36.24927217329619  -0.6859664328945658  -27.845343293394325  46.212295073182375  21.69674733886589  20.563098748744935  17.864286458209662  13.994554297880985  0.8338880174789707  23.315093647175154  120.000000
4.42365  0.000000  0.000000  0.000000  -35.98388149350004  -0.5294551054376031  -27.50193590023686  47.05537465159549  20.602623794266687  20.768757879957306  15.790219639709733  16.38429733299164  2.049442449433859  23.343772049938273  120.000000
4.4811  0.000000  0.000000  0.000000  -35.77855094432015  -0.41633457577821803  -27.154576541836796  47.95839418262754  19.599423456740155  21.033327349634785  14.44966832769058  19.244119369494634  2.242335706484257  23.374363467846646  120.000000
4.53855  0.000000  0.000000  0.000000  -35.64927680091628  -0.32976284979656656  -26.77081779174905  48.92375047295507  18.722142402263326  21.321642403818814  13.617770409779716  22.584267017351415  1.6581176716995398  23.463501097419606  120.000000
4.596  0.000000  0.000000  0.000000  -35.61985104851697  -0.25353179954140415  -26.317730621468996  49.93745901764908  17.980138432764477  21.604611562843726  13.106154818421103  26.387941216239565  0.5511165356855493  23.64842308155958  120.000000
4.65345  0.000000  0.000000  0.000000  -35.71289441673531  -0.17207033631315088  -25.76610552841437  50.97702418937769  17.36576736298819  21.848166900928824  12.785350017029595  30.60794084209269  -0.8514286602096489  23.922613235425235  120.000000
4.7109000000000005  0.000000  0.000000  0.000000  -35.933543616659286  -0.06709797854188118  -25.089142141810655  52.008625881030675  16.856873759372114  22.02238197581762  12.580321937496464  35.15347291528439  -2.362090013174525  24.234367927112554  120.000000
4.76835  0.000000  0.000000  0.000000  -36.26407453721257  0.07560276049016458  -24.26136577125634  52.994986885494946  16.424084861386635  22.10307716198018  12.464385951277999  39.893062942417544  -3.8564314437261293  24.506734707613745  120.000000
4.8258  0.000000  0.000000  0.000000  -36.665525828093834  0.2639427813687322  -23.26048351428473  53.909639012950315  16.044881887901553  22.06329582199963  12.43731857917636  44.67233087145972  -5.281163132762944  24.663907335095583  120.000000
4.88325  0.000000  0.000000  0.000000  -37.09790404673867  0.5074756104374564  -22.06433260000297  54.73637547633  15.707866222790642  21.883423386229747  12.505617550784256  49.33774913487619  -6.649037113026518  24.656322233962925  120.000000
